<?xml version="1.0" encoding="UTF-8"?>
<!DOCTYPE svg PUBLIC "-//W3C//DTD SVG 1.1//EN" "http://www.w3.org/Graphics/SVG/1.1/DTD/svg11.dtd">
<svg xmlns="http://www.w3.org/2000/svg" version="1.1" width="288px" height="288px" style="shape-rendering:geometricPrecision; text-rendering:geometricPrecision; image-rendering:optimizeQuality; fill-rule:evenodd; clip-rule:evenodd" xmlns:xlink="http://www.w3.org/1999/xlink">
<g><path style="opacity:0.072" fill="#e5e5e5" d="M 120.5,45.5 C 128.873,47.2491 137.373,48.5824 146,49.5C 165.323,51.6485 180.156,60.9819 190.5,77.5C 205.052,82.5747 213.219,92.9081 215,108.5C 221.057,111.779 227.224,114.946 233.5,118C 238.917,126.622 236.417,131.122 226,131.5C 222.277,131.153 218.611,130.486 215,129.5C 214.167,129.833 213.333,130.167 212.5,130.5C 216.791,138.974 215.958,146.974 210,154.5C 211.498,172.689 210.165,190.689 206,208.5C 199.03,232.748 182.863,244.415 157.5,243.5C 133.475,243.663 113.142,235.163 96.5,218C 94.0481,217.71 91.7148,217.044 89.5,216C 83.241,209.745 77.741,202.912 73,195.5C 61.6417,188.789 55.9751,178.789 56,165.5C 53.8061,162.446 52.1395,159.112 51,155.5C 49.4297,138.9 50.763,122.566 55,106.5C 57.8758,100.577 61.3758,95.0768 65.5,90C 67.9552,88.6884 70.4552,87.5218 73,86.5C 80.4295,68.4094 93.5962,56.5761 112.5,51C 114.746,48.3906 117.413,46.5572 120.5,45.5 Z"/></g>
<g><path style="opacity:0.983" fill="#080808" d="M 119.5,47.5 C 129.665,49.5824 139.998,51.0824 150.5,52C 167.247,55.9229 180.247,65.0896 189.5,79.5C 198.493,81.8983 204.993,87.2316 209,95.5C 211.141,100.757 212.974,106.091 214.5,111.5C 219.459,113.764 224.459,115.931 229.5,118C 233.253,119.674 234.753,122.507 234,126.5C 233.097,127.701 231.931,128.535 230.5,129C 225.073,129.638 219.74,129.138 214.5,127.5C 208.202,127.884 207.368,129.884 212,133.5C 214.472,140.942 213.139,147.609 208,153.5C 208.604,170.898 207.604,188.232 205,205.5C 200.464,224.702 188.631,236.536 169.5,241C 141.072,244.192 116.739,235.858 96.5,216C 94.8333,215.667 93.1667,215.333 91.5,215C 87.1025,210.588 82.9359,206.088 79,201.5C 77.3333,198.833 75.6667,196.167 74,193.5C 63.2572,187.032 57.9239,177.365 58,164.5C 53.0662,156.939 51.2329,148.605 52.5,139.5C 50.9323,122.756 55.099,107.756 65,94.5C 68.026,91.9737 71.1927,89.6404 74.5,87.5C 81.8407,68.9844 95.174,57.151 114.5,52C 116.063,50.264 117.73,48.764 119.5,47.5 Z"/></g>
<g><path style="opacity:1" fill="#e8e8e8" d="M 74.5,111.5 C 75.9989,110.506 77.6656,110.506 79.5,111.5C 92.6903,114.783 106.024,117.45 119.5,119.5C 116.713,120.477 113.713,120.81 110.5,120.5C 97.4009,121.539 85.4009,118.539 74.5,111.5 Z"/></g>
<g><path style="opacity:1" fill="#464646" d="M 73.5,103.5 C 73.5,105.5 73.5,107.5 73.5,109.5C 76.8333,109.5 80.1667,109.5 83.5,109.5C 82.1667,110.167 80.8333,110.833 79.5,111.5C 77.6656,110.506 75.9989,110.506 74.5,111.5C 72.9735,110.508 72.3068,109.008 72.5,107C 72.5143,105.615 72.8476,104.449 73.5,103.5 Z"/></g>
<g><path style="opacity:0.998" fill="#f7f7f7" d="M 199.5,108.5 C 209.599,111.591 219.266,115.758 228.5,121C 225.167,121.333 221.833,121.667 218.5,122C 208.685,126.076 199.018,130.409 189.5,135C 171.789,140.83 154.789,139.163 138.5,130C 135.167,128 131.833,126 128.5,124C 153.158,122.676 176.825,117.509 199.5,108.5 Z"/></g>
<g><path style="opacity:1" fill="#101010" d="M 119.5,119.5 C 106.024,117.45 92.6903,114.783 79.5,111.5C 80.8333,110.833 82.1667,110.167 83.5,109.5C 112.499,108.605 141.499,108.105 170.5,108C 153.007,110.792 136.007,114.626 119.5,119.5 Z"/></g>
<g><path style="opacity:1" fill="#fcfcfc" d="M 122.5,120.5 C 121.391,120.443 120.391,120.11 119.5,119.5C 136.007,114.626 153.007,110.792 170.5,108C 141.499,108.105 112.499,108.605 83.5,109.5C 80.1667,109.5 76.8333,109.5 73.5,109.5C 73.5,107.5 73.5,105.5 73.5,103.5C 76.6832,79.826 89.5165,64.1594 112,56.5C 114.296,56.9093 116.13,58.0759 117.5,60C 124.52,62.1242 129.854,60.1242 133.5,54C 164.429,53.576 184.929,68.076 195,97.5C 196.318,100.406 196.652,103.406 196,106.5C 172.14,115.556 147.64,120.222 122.5,120.5 Z"/></g>
<g><path style="opacity:1" fill="#ebebeb" d="M 119.5,50.5 C 122.85,50.335 126.183,50.5017 129.5,51C 130.89,53.9938 129.89,55.9938 126.5,57C 123.833,57.6667 121.167,57.6667 118.5,57C 117.643,56.3109 116.977,55.4776 116.5,54.5C 117.524,53.1482 118.524,51.8149 119.5,50.5 Z"/></g>
<g><path style="opacity:1" fill="#575757" d="M 119.5,119.5 C 120.391,120.11 121.391,120.443 122.5,120.5C 118.5,121.833 114.5,121.833 110.5,120.5C 113.713,120.81 116.713,120.477 119.5,119.5 Z"/></g>
<g><path style="opacity:0.236" fill="#e5e5e5" d="M 228.5,123.5 C 230.942,123.354 231.609,124.187 230.5,126C 226.638,126.913 222.972,126.58 219.5,125C 222.695,124.819 225.695,124.319 228.5,123.5 Z"/></g>
<g><path style="opacity:1" fill="#dfdfdf" d="M 126.5,127.5 C 132.196,128.52 132.696,130.52 128,133.5C 127.011,138.694 125.844,138.694 124.5,133.5C 125.178,131.484 125.844,129.484 126.5,127.5 Z"/></g>
<g><path style="opacity:1" fill="#efefef" d="M 133.5,131.5 C 137.187,132.176 140.52,133.676 143.5,136C 140.771,136.005 138.771,137.171 137.5,139.5C 140.116,140.561 142.616,140.228 145,138.5C 144.578,141.098 144.578,143.764 145,146.5C 148.62,150.487 152.287,150.487 156,146.5C 156.192,144.423 156.692,142.423 157.5,140.5C 159.565,140.953 161.232,141.953 162.5,143.5C 156.529,154.195 147.696,157.862 136,154.5C 132.809,152.72 131.642,150.22 132.5,147C 126.864,141.217 127.198,136.05 133.5,131.5 Z"/></g>
<g><path style="opacity:1" fill="#e7e7e7" d="M 204.5,131.5 C 207.099,131.549 209.266,132.549 211,134.5C 211.667,138.5 211.667,142.5 211,146.5C 210.313,148.555 209.146,150.221 207.5,151.5C 204.351,145.088 203.351,138.421 204.5,131.5 Z"/></g>
<g><path style="opacity:1" fill="#f9f9f9" d="M 117.5,141.5 C 120.162,144.655 123.495,146.822 127.5,148C 134.129,159.165 143.129,161.499 154.5,155C 159.571,151.86 163.238,147.527 165.5,142C 171.586,139.933 175.752,141.767 178,147.5C 182.771,153.631 188.937,157.298 196.5,158.5C 198.228,158.41 199.894,158.077 201.5,157.5C 202.842,172.932 202.009,188.265 199,203.5C 196.008,220.49 186.175,230.99 169.5,235C 131.093,238.467 103.093,223.133 85.5,189C 69.2573,187.115 62.7573,178.281 66,162.5C 69.2169,156.946 73.8836,153.279 80,151.5C 83.2555,152.422 85.5889,154.422 87,157.5C 90.6535,163.139 93.4869,169.139 95.5,175.5C 97.8333,175.5 100.167,175.5 102.5,175.5C 103.862,164.577 106.362,153.911 110,143.5C 110.414,143.043 110.914,142.709 111.5,142.5C 113.281,146.07 115.948,148.737 119.5,150.5C 119.833,150 120.167,149.5 120.5,149C 119.349,146.535 118.349,144.035 117.5,141.5 Z"/></g>
<g><path style="opacity:1" fill="#e1e1e1" d="M 196.5,154.5 C 196.158,155.338 195.492,155.672 194.5,155.5C 186.462,154.31 180.796,149.976 177.5,142.5C 179.304,141.232 181.304,140.565 183.5,140.5C 182.497,147.665 185.497,150.498 192.5,149C 193.618,147.926 194.618,146.76 195.5,145.5C 196.484,148.428 196.817,151.428 196.5,154.5 Z"/></g>
<g><path style="opacity:1" fill="#949494" d="M 194.5,155.5 C 195.492,155.672 196.158,155.338 196.5,154.5C 197.5,154.5 198.5,154.5 199.5,154.5C 199.281,153.325 199.614,152.325 200.5,151.5C 201.833,152.833 201.833,154.167 200.5,155.5C 198.357,156.754 196.357,156.754 194.5,155.5 Z"/></g>
<g><path style="opacity:1" fill="#0e0e0e" d="M 77.5,162.5 C 79.0174,162.511 80.1841,163.177 81,164.5C 82.9154,168.607 83.4154,172.774 82.5,177C 80.5665,177.783 79.0665,177.283 78,175.5C 77.011,172.544 76.1777,169.544 75.5,166.5C 75.7517,164.927 76.4183,163.594 77.5,162.5 Z"/></g>
<g><path style="opacity:1" fill="#141414" d="M 170.5,148.5 C 173.768,153.008 176.602,158.008 179,163.5C 181.333,165.833 183.667,168.167 186,170.5C 187.905,177.187 185.405,181.021 178.5,182C 175.833,182.667 173.167,182.667 170.5,182C 174.341,181.124 178.007,179.791 181.5,178C 182.358,176.43 183.025,174.763 183.5,173C 182.083,169.584 179.916,166.751 177,164.5C 174.729,159.183 172.563,153.85 170.5,148.5 Z"/></g>
<g><path style="opacity:1" fill="#0c0c0c" d="M 167.5,187.5 C 168.833,187.5 170.167,187.5 171.5,187.5C 171.664,190.187 171.497,192.854 171,195.5C 170.29,196.973 169.124,197.64 167.5,197.5C 167.5,194.167 167.5,190.833 167.5,187.5 Z"/></g>
<g><path style="opacity:1" fill="#0c0c0c" d="M 174.5,187.5 C 175.833,187.5 177.167,187.5 178.5,187.5C 178.5,190.833 178.5,194.167 178.5,197.5C 177.178,197.67 176.011,197.337 175,196.5C 174.502,193.518 174.335,190.518 174.5,187.5 Z"/></g>
<g><path style="opacity:1" fill="#101010" d="M 161.5,187.5 C 162.5,187.5 163.5,187.5 164.5,187.5C 164.664,190.187 164.497,192.854 164,195.5C 163.29,196.973 162.124,197.64 160.5,197.5C 160.253,194.061 160.586,190.728 161.5,187.5 Z"/></g>
<g><path style="opacity:1" fill="#222222" d="M 181.5,187.5 C 182.822,187.33 183.989,187.663 185,188.5C 185.436,190.847 185.936,193.181 186.5,195.5C 185.976,198.396 184.476,199.063 182,197.5C 181.502,194.183 181.335,190.85 181.5,187.5 Z"/></g>
<g><path style="opacity:1" fill="#1a1a1a" d="M 146.5,188.5 C 148.252,188.418 149.252,189.251 149.5,191C 149.077,193.633 147.91,195.799 146,197.5C 144.5,197.333 143.667,196.5 143.5,195C 144.789,192.965 145.789,190.799 146.5,188.5 Z"/></g>
<g><path style="opacity:1" fill="#181818" d="M 153.5,189.5 C 154.833,189.5 156.167,189.5 157.5,189.5C 157.149,192.238 156.482,194.904 155.5,197.5C 154.675,198.386 153.675,198.719 152.5,198.5C 152.368,195.43 152.701,192.43 153.5,189.5 Z"/></g>
<g><path style="opacity:1" fill="#111111" d="M 189.5,190.5 C 190.5,190.5 191.5,190.5 192.5,190.5C 192.963,193.482 193.296,196.482 193.5,199.5C 192.178,199.67 191.011,199.337 190,198.5C 188.788,195.784 188.621,193.117 189.5,190.5 Z"/></g>
<g><path style="opacity:1" fill="#1a1a1a" d="M 138.5,191.5 C 139.5,191.5 140.5,191.5 141.5,191.5C 141.867,195.05 140.867,198.05 138.5,200.5C 137.054,199.829 136.388,198.662 136.5,197C 136.758,194.991 137.425,193.157 138.5,191.5 Z"/></g>
<g><path style="opacity:1" fill="#161616" d="M 131.5,195.5 C 133.252,195.418 134.252,196.251 134.5,198C 133.839,200.464 133.339,202.964 133,205.5C 131.989,206.337 130.822,206.67 129.5,206.5C 129.242,202.628 129.909,198.961 131.5,195.5 Z"/></g>
<g><path style="opacity:1" fill="#101010" d="M 150.5,202.5 C 157.854,205.059 165.188,205.059 172.5,202.5C 175.975,203.286 176.308,204.786 173.5,207C 166.079,209.126 158.745,208.959 151.5,206.5C 150.571,205.311 150.238,203.978 150.5,202.5 Z"/></g>
</svg>
